<?xml version="1.0" encoding="UTF-8" standalone="no"?>
<!-- Created with Inkscape (http://www.inkscape.org/) -->

<svg
   width="512"
   height="512"
   viewBox="0 0 135.46666 135.46667"
   version="1.1"
   id="svg5"
   xml:space="preserve"
   xmlns="http://www.w3.org/2000/svg"
   xmlns:svg="http://www.w3.org/2000/svg"><defs
     id="defs2" /><g
     id="layer1"><path
       d="m 67.733333,133.37088 c 36.250527,0 65.637547,-29.38702 65.637547,-65.637547 0,-36.250631 -29.38702,-65.6375451 -65.637547,-65.6375451 -36.250631,0 -65.6375451,29.3869141 -65.6375451,65.6375451 0,36.250527 29.3869141,65.637547 65.6375451,65.637547 z"
       fill="#24d4de"
       fill-opacity="0.04"
       id="path2162"
       style="stroke-width:0.364653" /><path
       d="m 67.872631,122.94107 c 30.413521,0 55.068439,-24.654918 55.068439,-55.068439 0,-30.413594 -24.654918,-55.068588 -55.068439,-55.068588 -30.413558,0 -55.068552,24.654994 -55.068552,55.068588 0,30.413521 24.654994,55.068439 55.068552,55.068439 z"
       fill="#24d4de"
       fill-opacity="0.06"
       id="path2164"
       style="stroke-width:0.364653" /><path
       d="m 67.907637,113.88893 c 25.394802,0 45.981653,-20.586491 45.981653,-45.981293 0,-25.395166 -20.586851,-45.981762 -45.981653,-45.981762 -25.395166,0 -45.981762,20.586596 -45.981762,45.981762 0,25.394802 20.586596,45.981293 45.981762,45.981293 z"
       fill="#49c0f8"
       id="path2166"
       style="stroke-width:0.364653" /><path
       fill-rule="evenodd"
       clip-rule="evenodd"
       d="m 96.590151,94.511629 c 2.602893,0 4.825449,1.628175 5.704629,3.921478 -2.836998,3.194363 -6.112676,5.990523 -9.732222,8.294033 l -13.879059,-7.3e-4 c -3.37304,0 -6.107573,-2.73453 -6.107573,-6.10757 0,-3.373043 2.734533,-6.107211 6.107573,-6.107211 z"
       fill="#bbf3f6"
       id="path2176"
       style="stroke-width:0.364653" /><path
       fill-rule="evenodd"
       clip-rule="evenodd"
       d="m 36.97485,33.885036 4.131154,6.2e-4 c 3.373041,0 6.107574,2.734387 6.107574,6.107427 0,0.826669 -0.164459,1.615049 -0.462015,2.334509 l 1.96475,-3.65e-4 c 3.373041,0 6.107574,2.734533 6.107574,6.107574 0,3.373041 -2.734533,6.107574 -6.107574,6.107574 h -7.290508 c -3.37304,0 -6.107428,-2.734533 -6.107428,-6.107574 0,-0.826668 0.164277,-1.615048 0.461943,-2.334509 h -8.364703 c 2.457141,-4.553057 5.65978,-8.644173 9.444368,-12.110382 z"
       fill="#bbf3f6"
       id="path2180"
       style="stroke-width:0.364653" /><g
       id="g3817"
       transform="matrix(0.75925293,0,0,0.75925293,18.149957,15.896377)"><path
         id="IN-AP"
         title="Andhra Pradesh"
         d="m 74.10338,83.93419 -2.41e-4,9.1e-4 z m 0.07848,-0.0047 c 0.122666,0.553265 -0.372519,0.07173 0,0 z m -0.07848,0.0047 c -0.03216,-0.20463 -0.441509,1.234869 -1.673831,1.002613 -1.314687,-0.490081 -1.074301,1.609951 -2.049106,1.628422 -0.241647,-1.102113 -1.768273,0.193019 -1.802623,1.026644 -0.196405,1.206061 0.249934,2.354029 0.21226,3.547228 0.398327,1.829658 0.158724,0.54777 -0.330994,0.933128 1.246517,1.05342 0.007,-0.136811 -0.161839,0.368253 -0.518624,0.457131 -0.555178,0.725891 -1.046042,0.555094 -0.56622,-0.372005 -0.392613,0.323516 -1.077348,0.61662 -0.812233,-0.207769 -1.242351,-0.318224 -1.530073,0.681676 0.02921,0.528235 -1.387004,0.21283 -0.610902,-0.267387 0.281855,-0.182848 1.075511,-1.101971 0.334879,-1.16838 0.02604,-0.53115 -0.818872,-0.80628 -0.822874,-1.068564 -0.242349,-0.480986 -0.461543,-0.7927 -0.999347,-0.208507 -0.123885,0.05493 -0.757128,0.54119 -0.72646,-0.115837 -0.875329,-0.291701 -0.438497,0.05681 -1.088663,0.240504 0.149369,-0.757023 -0.590743,-1.592061 0.389896,-0.647127 0.976177,0.407783 0.484643,0.02466 0.57778,-0.358511 0.598382,-0.536246 -0.100185,-0.285764 -0.667129,-0.410823 -0.761853,0.416528 -0.206894,-0.580371 -0.886435,-0.819302 0.392207,-0.873842 -0.29475,-1.425982 0.803019,-1.038559 0.715247,-0.704297 -0.713376,-1.106835 0.0068,-1.707975 -0.500789,-0.607023 0.722509,-1.062545 1.599652,-0.612833 1.098334,0.437924 1.085445,-0.457255 2.124125,-0.445581 0.693912,-0.0584 1.300782,-0.241041 1.672616,-0.927331 0.09743,-1.167008 2.458678,-0.219768 1.937167,-1.195393 0.475848,-1.177031 1.19673,0.733993 1.418367,0.101275 -0.333029,-0.386805 -0.639757,-0.843424 0.214382,-0.607624 0.766243,0.09545 1.085046,-0.763082 1.844853,-0.797672 0.485927,-0.697332 0.819038,-1.415788 1.622802,-1.835228 0.911062,0.339563 0.70058,-0.164894 0.950176,-0.681008 0.07658,-1.426561 0.493301,0.806476 1.008619,-0.235313 0.427336,0.191505 0.939541,-0.152083 0.550029,-0.649693 0.630471,-0.354162 1.114079,-0.559539 0.843342,-0.988933 0.492029,0.137402 0.351961,-0.319381 0.798724,-0.184922 0.113435,0.336818 0.957171,1.252635 1.695036,0.567032 0.05224,-0.06239 0.758637,-0.642669 0.714789,-0.559567 0.63503,-0.586249 -0.310895,1.144365 -0.826863,1.538235 -0.720089,0.869101 -2.032961,1.097832 -2.538319,2.219066 -0.76205,0.738915 -2.375002,0.891509 -2.590512,2.052915 0.246729,0.06793 0.379877,0.2955 0.109991,0.453366 z"
         style="fill:#00c021;fill-opacity:1;stroke-width:0.120374" /><path
         id="IN-AR"
         title="Arunachal Pradesh"
         d="m 109.02407,49.081815 c 1.2219,0.448666 -0.57139,0.920617 0.22008,1.277526 0.75634,-0.992231 0.98895,0.527265 0.62735,0.873787 -1.02533,0.857869 -0.0775,0.562788 0.70625,0.759202 0.89853,-0.06289 1.56126,0.398293 1.6147,1.002836 -0.1006,0.575623 -1.72503,0.743288 -1.1395,1.784076 1.11215,1.271402 -0.26188,0.640645 -0.6165,0.05589 -0.8952,0.185796 -2.00146,0.506746 -2.48842,1.394746 -0.66532,0.762919 -1.75299,0.558037 -1.21591,-0.404462 0.34559,-0.806245 2.18139,-0.492387 1.68479,-1.172745 0.009,0.111942 -0.77303,-0.973423 0.0264,-1.266252 -0.23956,-0.61771 -1.99205,0.323002 -2.7414,0.524521 -1.04985,0.614247 -1.48547,-0.138125 -1.96161,0.968155 -0.64593,0.962285 -1.30999,1.327799 -2.62464,1.267704 -0.68254,-0.927486 -1.921077,0.629325 -2.308123,-0.25747 -0.07304,-0.95058 -0.101547,-1.380802 -1.28713,-1.529928 -0.164826,-1.171089 0.193562,-0.703105 0.983291,-0.635494 0.550026,-0.365104 1.985822,0.239786 1.714012,-0.839434 0.56784,-0.746558 1.54072,-0.452086 1.60494,-1.540092 0.57567,-0.514128 1.72163,0.199546 1.92476,-0.836808 0.42263,-0.558428 1.5007,-1.828544 1.85033,-0.79315 0.66614,-0.201674 1.70802,0.849438 1.98509,-0.154381 0.25854,-0.245476 1.1304,-0.883496 1.44128,-0.47822 z"
         style="fill:#00c021;fill-opacity:1;stroke-width:0.120374" /><path
         id="IN-AS"
         title="Assam"
         d="m 93.18017,60.010666 c 0.224227,0.147361 -0.284175,0.348274 0,0 z m 5.638693,-3.798752 c 1.082603,-0.265004 1.714807,-0.395036 2.737277,-0.135059 1.38521,0.257088 1.63205,-0.698992 2.42688,-1.523385 0.22265,-0.644412 1.18739,-0.128266 1.99027,-0.795954 0.62254,-0.08726 3.05357,-1.213245 2.20768,-0.148293 -0.20064,0.371173 0.0659,1.262457 0.36483,1.097558 -0.11837,0.641104 -1.52106,0.498647 -2.1045,1.240534 -0.68756,0.376691 -1.49926,0.638442 -1.84738,1.277467 -0.3941,-0.18444 -1.0755,0.873673 -1.06685,1.703967 -0.49493,0.113025 -1.18057,0.20631 -1.49675,1.257844 0.50116,0.54863 -0.41901,1.360483 -0.57837,1.928853 -0.32889,0.161628 0.0273,1.256771 -0.81649,1.144247 -0.16543,-0.494103 -1.361785,1.445378 -1.402226,-0.0045 -0.375086,-1.100969 0.266878,-1.433613 0.494357,-1.564344 -0.495135,-0.582351 1.258749,-0.452182 0.676119,-1.224041 -0.563876,-0.204126 -0.12834,-0.823393 -1.016473,-0.962573 -1.078091,-0.02079 0.56518,-1.443799 -1.167654,-0.9177 -0.542,0.145646 -0.768287,0.217524 -1.0729,0.593042 -0.75972,0.452033 -0.860711,-0.03921 -1.331697,-0.286824 -0.555085,0.02802 -0.864934,0.167453 -1.38829,-0.188707 -1.277185,-0.146883 -0.912723,1.524632 -1.20895,1.067481 -0.215573,-0.882026 0.04622,-0.912868 -0.338625,-1.475705 -0.421183,-0.351241 0.508851,-0.524503 0.267077,-1.318764 0.389135,-0.435958 1.351689,-0.986489 2.154954,-0.40761 1.058073,-0.266032 2.014339,0.19005 2.886575,-0.414526 0.18964,-0.05144 0.481327,0.431486 0.631136,0.05684 z"
         style="fill:#00c021;fill-opacity:1;stroke-width:0.120374" /><path
         id="IN-BR"
         title="Bihar"
         d="m 88.733303,57.213904 0.0023,0.0096 z M 78.690001,54.45231 c 0.739006,0.250135 1.483795,0.864566 1.70333,1.471333 0.82396,0.13162 0.979843,1.086321 2.052237,0.387315 0.381027,0.867122 0.882482,0.674729 1.623454,0.684161 0.830602,0.809839 1.928693,0.03112 2.114971,0.470668 0.705612,0.468924 1.63732,-0.156674 2.105208,0.09036 0.567506,0.06867 0.686113,-0.697805 0.8525,0.10357 -0.178057,0.637756 -1.581802,0.876108 -0.904397,1.487208 0.04217,0.138201 0.695963,1.220392 0.195168,0.917718 -0.976599,-0.157147 0.03076,1.395055 -0.760644,0.600217 -0.550307,0.04936 -1.206494,0.311969 -1.325716,1.183549 -0.252387,0.707929 -0.622909,0.976603 -1.075096,0.861422 -0.769448,0.429849 -0.879462,0.500612 -1.352171,-0.02598 -0.313912,-0.841644 -1.322932,-0.614321 -1.55203,-0.04789 -0.510736,0.217034 -1.222749,0.512469 -1.538581,0.628097 -0.488761,-0.935757 -1.06012,0.581724 -1.594467,-0.05517 -0.02848,-0.869674 -0.502983,0.03872 -0.728051,-0.60068 -0.924051,0.619093 -1.407244,0.09051 -1.745911,-0.718083 -0.396435,-0.830762 0.524349,-1.400146 1.02786,-1.442716 0.293339,-0.592483 1.104109,-0.875457 1.434845,-0.998474 0.744671,0.446773 0.930958,-0.233029 0.05042,-0.602496 -1.413104,-0.218102 -0.08879,-0.979633 -0.84846,-1.365897 -1.005479,-0.435372 1.914958,-0.432028 0.552982,-0.832614 -0.09943,-0.447446 -0.721608,-0.640367 -0.673482,-1.21325 -0.364321,-0.735957 -0.422106,-0.501618 0.386036,-0.982381 z"
         style="fill:#00c021;fill-opacity:1;stroke-width:0.120374" /><path
         id="IN-CH"
         title="Chandigarh"
         d="m 60.295372,45.28052 c -0.878557,-0.0508 0.199918,-0.632933 0,0 z"
         style="fill:#00c021;fill-opacity:1;stroke-width:0.120374" /><path
         id="IN-CT"
         title="Chhattisgarh"
         d="m 76.683724,64.024558 c 0.801776,0.36651 1.091562,1.6347 1.758029,1.5149 -0.104114,0.642365 0.0851,1.793008 0.868614,1.588272 0.125223,0.798351 -1.278631,0.902263 -0.91144,1.659595 -1.240451,0.06586 -0.985201,1.272745 -1.293313,1.506852 -0.272582,0.615868 -0.164521,1.11355 -0.687013,1.504336 -0.417537,0.715985 -1.745496,-0.190908 -1.912642,1.177686 -0.778165,-0.0665 0.200954,1.239696 -0.202521,1.832311 0.960867,0.7078 1.005803,0.865134 -0.09944,0.844843 -0.619499,-1.117404 -1.767544,-0.457447 -0.760768,0.337979 0.17788,0.802896 0.361892,1.122576 0.501514,2.06514 -0.529635,0.727463 -0.691622,0.688952 -1.195592,1.386097 -0.87022,0.308252 -0.4957,1.922989 -1.691488,1.623959 -0.319125,-1.116199 -0.750649,-0.771477 -0.9429,-1.545579 -0.379052,-0.73659 -1.357545,-0.586313 -1.131394,-1.456912 -5.91e-4,-1.387885 1.268236,-0.801707 1.311116,-1.330287 0.68755,-0.505203 -1.48753,-1.006153 -0.735849,-1.180998 0.177766,-0.221805 -0.514193,-0.874829 0.116133,-1.180856 0.229211,-0.740968 -0.0018,-1.202476 -0.23858,-1.968693 0.578965,-0.64671 0.800907,-1.71183 0.935065,-2.496136 0.589112,-0.348506 0.44878,-1.022108 1.151622,-1.479668 0.271377,0.228466 1.136884,-0.168434 1.187135,-0.620799 0.132933,-0.784834 0.968245,-0.834407 1.106989,-1.642853 -0.488656,-0.363197 -1.063304,-0.625239 -1.534122,-0.631486 0.290863,-0.919605 -0.05083,-0.898478 1.067477,-0.849788 0.704875,0.189608 1.447621,0.337169 2.033588,-0.2759 0.516601,0.564079 1.058955,0.09988 1.299778,-0.382015 z"
         style="fill:#00c021;fill-opacity:1;stroke-width:0.120374" /><path
         id="IN-DD"
         title="Daman and Diu"
         d="m 44.808262,73.141535 c 0.196832,-1.432394 0.987105,0.446619 0.176754,0.09228 l -0.176757,-0.09227 z"
         style="fill:#00c021;fill-opacity:1;stroke-width:0.120374" /><path
         id="IN-DL"
         title="Delhi"
         d="m 61.220327,50.574487 c 0.546811,0.437004 0.323628,1.714908 -0.348002,1.012298 -0.869159,0.314422 -0.295211,-1.167694 0.227873,-0.939792 z"
         style="fill:#00c021;fill-opacity:1;stroke-width:0.120374" /><path
         id="IN-DN"
         title="Dadra and Nagar Haveli"
         d="m 51.215061,74.869365 c -0.496328,0.523965 -0.988978,-0.616208 -0.315979,-0.550904 -0.09918,0.13146 0.160241,0.423225 0.315979,0.550904 z"
         style="fill:#00c021;fill-opacity:1;stroke-width:0.120374" /><path
         id="IN-GA"
         title="Goa"
         d="m 52.383894,86.535452 c 0.550064,0.05332 1.264633,0.01588 1.529833,0.519789 -0.0255,0.540322 0.267576,1.509609 -0.478488,1.648395 -0.694799,-0.629739 -0.370063,-1.462353 -0.838527,-1.565606 -0.0264,-0.21797 -0.108504,-0.412155 -0.212818,-0.602578 z"
         style="fill:#00c021;fill-opacity:1;stroke-width:0.120374" /><path
         id="IN-GJ"
         title="Gujarat"
         d="m 42.172185,68.536657 c 0.296144,0.28853 -0.334821,0.07183 0,0 z m -1.236845,-0.04948 c 0.03978,0.274344 -0.319069,0.0686 0,0 z m 2.197914,-0.315805 c 0.170928,0.20646 -0.373277,0.07499 0,0 z m -3.655886,-1.975231 c 0.422023,0.07961 -0.219708,0.343347 0,0 z m 0.07764,-0.166637 c 0.307372,0.188252 -0.212632,0.04104 0,0 z m -0.29275,-0.291792 c 0.333274,0.285168 -0.496679,0.149181 0,0 z m 0.02335,-0.320532 c 0.03571,0.372929 -0.384026,0.287169 0,0 z m -0.06525,-0.07725 c 0.127893,0.214735 -0.231909,0.07042 0,0 z m -0.246286,-0.496992 c 0.588986,0.556582 -1.037947,0.852113 -0.07271,0.224375 l 0.06876,-0.212187 0.004,-0.01219 z m -0.09823,0.0172 c 0.112787,0.493675 -0.332977,0.03822 0,0 z m 0.446107,-0.08853 c 0.219994,0.525385 -0.421198,0.149676 0,0 z m -0.280471,-0.08744 c 0.468458,0.145068 -0.308515,0.259244 0,0 z m 0.142884,-0.200345 c 0.361668,0.196487 -0.970828,0.400022 0,0 z m 0.22835,-0.0067 c 0.316382,0.199349 -0.3457,0.30843 0,0 z M 39.285597,64.32504 c 0.135996,0.678765 -0.258555,0.121092 0,0 z m -0.130968,-0.0076 c -0.33477,1.080966 -0.921536,0.638956 -0.08594,0.08306 l 0.08594,-0.08307 z m 6.745653,-1.89883 c 0.902349,0.140655 1.803337,0.20086 2.382207,-0.06997 0.811853,0.432469 0.514742,0.217825 1.147024,0.821412 0.356714,-0.0055 1.442585,-0.07975 1.454604,0.04295 0.594617,-0.107224 -0.235717,1.535 0.726942,0.737359 -0.210398,0.974843 0.440792,1.184238 0.718044,1.722006 0.08245,0.409299 1.080822,0.163225 1.180873,0.894434 0.50273,0.02925 1.297049,1.303072 0.348483,1.464022 -0.957763,0.543989 -0.198685,0.444103 -0.01854,0.668874 -0.940723,0.0796 0.109651,0.942823 -0.48788,1.302259 -0.918428,0.190112 -0.833874,1.514513 0.307199,0.985365 0.898153,0.247129 -0.773055,0.138002 -0.741855,0.805671 -0.707723,0.414981 -0.824822,0.293275 0.03635,0.755667 0.331507,0.753905 -0.431377,1.411879 -1.027989,0.890384 -0.284874,-0.260604 0.100866,1.294433 -0.527466,1.356961 -0.750831,0.214195 -0.110486,-0.657922 -0.616923,-0.380999 -0.274087,0.05239 -1.117777,0.887704 -0.468112,-0.417688 0.177305,-1.210733 -0.518889,-1.771701 -0.604531,-2.096227 -0.134389,-0.931972 0.616978,-1.087514 0.07561,-1.236006 -0.674376,-0.02516 -0.351611,-1.924731 0.578019,-1.484119 0.06337,-0.388379 -1.275549,0.405591 -1.173051,-0.368137 -0.09024,0.06866 -0.09239,0.887986 -0.399675,0.947981 -0.105313,-0.68342 0.402718,1.821506 -0.447257,1.923107 0.135426,0.699238 -1.014176,0.556491 -1.590536,1.162289 -0.316654,0.06784 -1.701868,0.750217 -1.382832,0.130092 -0.05231,-0.817528 -1.110288,0.783973 -2.007237,-0.756013 -1.16856,-1.321634 -0.58412,-1.176858 -1.650462,-1.781265 -0.875716,-0.414458 -1.740328,-2.280203 -0.631231,-1.804298 -0.04137,0.80916 1.111695,0.0051 1.269817,-0.05237 0.139276,-0.0071 1.20031,-0.126051 1.398388,-0.79426 0.991563,-1.126876 0.263991,-0.668333 -0.521153,-0.471332 -1.000295,0.647409 -2.075567,0.336546 -3.073358,-0.424485 -0.72414,-0.473151 -0.554968,-0.775298 -0.82153,-1.64005 0.930815,-0.755102 -0.14192,-0.254922 0.221849,-0.732505 0.509345,-0.211323 0.311062,-1.299605 1.236393,-0.941285 0.883686,-0.372628 1.986766,0.76078 2.619915,-0.07758 1.256078,-0.999128 1.242928,0.840999 2.216089,-0.193561 0.934148,-0.01164 -0.68112,-0.447115 0.273814,-0.888638 z"
         style="fill:#00c021;fill-opacity:1;stroke-width:0.120374" /><path
         id="IN-HP"
         title="Himachal Pradesh"
         d="m 57.908351,39.671107 c -0.350635,-1.250589 0.324676,-0.850679 1.18418,-1.73165 1.062702,-0.252437 1.0668,-0.397441 1.65292,0.489272 0.585157,0.271955 1.002876,0.739235 1.680184,0.01067 0.696915,0.514621 0.633532,1.609329 1.569111,0.834025 0.119456,0.164058 0.170223,0.602255 0.454429,1.053187 0.279013,0.470399 0.747974,1.303296 0.784672,1.989036 -0.548034,0.382292 1.063382,2.149517 0.03876,1.435547 -0.841342,-0.06362 -1.338452,-0.31822 -2.117386,0.0776 -0.521531,0.692888 -0.694298,0.760439 -0.442736,1.516552 0.275423,0.691031 -0.985038,0.624998 -0.953606,0.718546 -0.839291,-0.227568 -0.63827,-0.964495 -1.227966,-1.350255 -0.827224,0.08432 -0.691853,-1.091844 -0.947795,-1.195587 -0.316382,-0.504353 -0.683599,0.07574 -0.966724,-0.384808 -0.334551,-0.979115 -0.903096,-1.748294 -1.304352,-2.153949 -0.137683,-0.538097 1.067821,-0.585519 0.596303,-1.308187 z"
         style="fill:#00c021;fill-opacity:1;stroke-width:0.120374" /><path
         id="IN-HR"
         title="Haryana"
         d="m 60.16946,44.631932 c 0.455007,0.0662 0.942135,0.642641 1.047018,1.118049 0.614269,0.38252 1.404828,0.154891 0.535786,1.191548 -0.700569,0.403048 -0.897803,1.698331 -0.614991,2.278188 -0.0054,0.982754 0.246922,1.350715 -0.512575,1.709909 -0.681964,0.655631 0.451733,0.761194 0.693499,0.804411 0.805354,-0.190673 0.801398,0.894974 0.636298,1.021149 0.624795,0.695457 -1.144473,0.966685 -0.82348,0.903741 -0.364212,-0.01232 -0.831689,0.831867 -0.535785,-0.363379 0.237694,-1.88045 -1.145965,0.533233 -1.204196,-0.551691 -0.339932,-0.256665 -0.436373,0.07356 -0.742108,0.563088 0.228542,0.599238 -1.092156,-0.132261 -0.393985,-0.347943 -0.163812,-0.162766 0.531835,-0.661118 -0.525602,-1.052582 -0.788149,-0.437455 -0.696223,-1.629527 -1.021193,-2.087382 0.09703,-0.793688 -0.935088,0.07834 -1.398752,-0.798001 -1.183459,0.724548 -0.35771,-0.824088 -0.794463,-0.979556 -0.39824,-0.499871 0.777416,-1.030466 1.169432,-0.335094 0.660765,-0.312416 0.27985,0.757122 0.792654,0.779447 0.04094,-0.607842 1.007011,-0.708661 1.448341,-0.461095 1.076693,0.250941 0.707264,-1.182695 0.937111,-1.084092 0.311649,-0.457829 0.921302,0.598516 0.909306,-0.327091 -0.261895,-0.46116 0.926004,-0.305919 0.776898,-0.840568 -0.248856,-0.333297 -0.115968,-0.663291 -0.379213,-1.141056 z"
         style="fill:#00c021;fill-opacity:1;stroke-width:0.120374" /><path
         id="IN-JH"
         title="Jharkhand"
         d="m 77.123809,62.845262 c 1.079114,-0.06927 1.462556,-0.127401 1.91251,-0.01037 0.125204,0.150977 0.48656,0.875548 1.010416,0.380085 0.550832,-0.658911 0.917267,0.505544 1.571757,-0.287074 0.983755,0.235227 0.809556,-1.16052 1.656146,-0.681336 0.64508,-0.04536 0.754156,0.662373 1.292722,1.037873 0.09705,-1.075138 1.11274,-0.24161 1.204223,-0.760758 0.676691,-0.01037 0.443224,-1.506229 1.163409,-1.627893 0.529402,-0.571241 1.011198,0.0468 1.465473,0.922691 -0.719888,0.314721 0.09047,0.627636 -0.315545,0.960029 -0.06638,-0.03226 -0.462773,1.214701 -0.606204,1.169596 -0.197287,0.512843 -1.053805,0.02375 -0.78876,0.636836 -0.189286,0.412397 -0.679552,0.01638 -1.264137,0.185432 0.07672,0.584311 -1.314928,0.561668 -1.296056,1.075375 -0.405804,-0.489576 -0.979833,-0.293376 -1.139228,0.489466 0.333548,0.494166 1.184883,0.795425 1.799108,0.757264 -0.772,0.45559 0.283156,0.951348 0.651012,1.336866 0.194418,0.424358 0.212043,1.097677 -0.671021,0.547951 -0.43493,-0.07214 -1.763221,-1.236111 -1.290019,-0.08526 -0.0369,0.978864 -0.454521,0.934037 -0.946963,0.651822 -0.899174,-0.323775 -0.944374,0.311896 -1.675141,0.01537 0.607382,-0.72433 0.172265,-1.151781 -0.572082,-0.974589 -0.55883,0.261337 -2.100299,0.396856 -1.694387,-0.531654 1.132491,-0.563775 0.487502,-0.976581 -0.06358,-1.34001 0.04814,-1.147863 -0.249061,-1.15234 -0.820771,-1.730905 -0.690249,-0.517232 -1.05931,-1.156776 -0.829743,-1.808235 -0.136605,-0.22509 0.01624,-0.324971 0.246865,-0.328616 z"
         style="fill:#00c021;fill-opacity:1;stroke-width:0.120374" /><path
         id="IN-JK"
         title="Jammu and Kashmir"
         d="m 55.368694,26.030026 c 1.144374,-0.258661 1.63581,0.713863 2.461595,1.551831 0.708078,0.661111 2.17675,0.928343 2.213619,1.892427 0.571117,0.705766 1.722099,0.811628 2.299871,1.496433 1.140779,-0.192816 1.701833,-1.051708 2.801118,-1.334586 1.126203,0.207649 1.197644,-0.632665 2.483276,0.214824 0.761316,-0.264637 1.644178,0.95621 1.151539,1.759376 -0.100835,0.983835 -0.663317,1.925719 -1.389402,2.259402 -0.517348,0.206232 0.02023,1.958513 -1.358504,1.408248 -0.474634,0.467346 -0.351343,1.713634 -0.0538,2.429658 0.972927,-0.134327 1.227268,1.469195 0.940005,1.933754 -0.610235,0.443543 -1.72382,1.158079 -1.74567,-0.250532 -0.685429,0.123619 -1.463553,1.073176 -0.970966,-0.229573 -0.716382,0.422162 -1.013653,0.558362 -1.533298,-0.357062 -0.192963,-0.799317 -1.138129,0.584401 -1.550305,-0.147959 -0.711489,-0.277397 -0.719552,-1.280382 -1.421981,-0.883005 -0.566969,0.47523 -2.338945,0.698626 -1.686802,1.354795 -3.98e-4,0.793505 -0.931386,1.593569 -1.487107,1.258245 -0.765694,-0.572739 -2.033569,-0.362929 -1.714369,-1.455928 -0.74523,0.775576 -1.99604,-0.501015 -2.696866,-0.858759 -0.07567,-0.996704 0.145056,-1.958502 -0.287452,-2.8118 -0.331394,-1.08457 0.115956,-1.776365 0.862359,-2.297831 1.88007,-0.352369 -0.41711,-1.438178 -0.01192,-1.967108 -0.172552,-0.689033 -1.721115,-0.444029 -1.988342,-1.440888 -1.438975,0.552116 -1.096031,-1.320515 -0.07721,-1.745671 0.01127,-1.531533 2.381695,-0.436154 2.125508,-1.17479 -0.234263,-0.39028 1.367584,0.09092 1.856653,-0.724142 0.269069,-0.0709 0.530473,0.0251 0.778459,0.120641 z"
         style="fill:#00c021;fill-opacity:1;stroke-width:0.120374" /><path
         id="IN-KA"
         title="Karnataka"
         d="m 53.507347,86.729614 c 0.196005,-0.345976 1.157132,-0.571608 0.609936,-1.056184 0.732348,-0.411805 -0.270324,-0.686423 -0.180905,-1.067136 -0.175694,-0.23589 0.587012,-0.494966 0.993206,-0.38301 0.372442,-0.386541 0.631347,-1.202385 1.258273,-0.708939 0.26074,-0.399011 1.341611,-0.0018 1.231764,-0.582058 -0.534664,-0.857619 0.148315,-1.174633 0.542045,-0.685299 0.744821,-0.03311 1.341789,0.329671 1.212772,-0.369822 -0.132057,-0.753728 0.791212,-0.434394 0.858392,-0.763041 0.452311,-0.05483 0.418381,-1.215242 0.990692,-0.983755 0.337109,-0.982122 0.650666,-0.615477 1.009442,-0.40914 0.237861,0.424881 0.509728,1.032272 0.0036,1.340907 -0.452164,0.455504 0.381359,0.7766 0.326332,0.861662 -0.360939,0.207152 -0.952693,0.662646 -0.355349,1.238319 -0.357929,0.796098 0.249818,1.214286 -0.665563,1.420673 1.234944,0.380109 0.518589,0.414754 0.690962,1.438049 -1.619252,-0.522433 -0.769868,0.819748 -1.354812,1.086384 0.425055,0.465232 0.72875,1.210602 0.02468,1.297258 -0.74477,-0.630872 -0.67499,1.272445 -0.05922,1.39189 -0.50876,0.732172 0.554467,0.561791 0.809523,0.522632 0.578479,-0.06251 0.40031,0.144809 0.292028,0.449057 0.130361,0.843451 -0.137645,0.283667 -0.975373,0.0136 -0.392654,-0.762782 -0.07543,1.136662 0.219318,0.876536 0.0086,-0.451063 0.773278,-0.450872 0.893298,0.221009 0.349323,-0.304325 0.734256,-0.01356 0.898597,-0.604857 0.408209,-0.0045 0.816809,0.105409 0.691427,0.709875 0.887348,-0.129513 0.478208,1.027034 1.251649,0.968149 -0.188682,0.664386 -0.472009,1.069045 -1.118748,1.279716 -0.578999,-0.429401 -0.694041,-0.08813 -1.207602,0.241901 -0.443115,0.778812 -0.199332,1.185525 0.08848,1.715237 -0.519157,0.450832 -1.102362,0.780227 -1.681271,0.631962 -0.285796,0.157644 -0.974637,0.732775 -1.57727,0.163796 -0.399205,-0.497079 -1.144015,-0.53381 -1.750604,-1.029285 -0.955688,-0.502046 -0.719231,-1.196665 -1.260294,-1.355106 -0.407339,-0.304255 -0.977109,-0.17326 -1.119329,-1.237159 -0.121241,-1.319311 -0.603637,-2.41999 -1.016828,-3.635828 0.152082,-0.248953 -0.995871,-0.80781 -0.457779,-1.168641 0.616801,-0.335922 0.272486,-1.133114 0.209455,-1.839526 -0.185132,-0.03508 -0.113481,-0.04985 -0.324933,0.01017 z"
         style="fill:#00c021;fill-opacity:1;stroke-width:0.120374" /><path
         id="IN-KL"
         title="Kerala"
         d="m 55.374713,94.266359 c 0.464748,0.01216 0.946178,0.369741 1.043403,0.610594 0.3303,0.206647 0.772071,1.080551 1.500804,1.490461 0.473981,-0.05711 1.839999,0.549539 1.061097,0.970064 -0.0079,0.08646 0.447528,1.225044 1.005483,0.856864 -0.201436,0.669395 0.590391,0.950332 0.334636,1.659916 -0.533576,1.650682 1.253986,0.02609 1.085573,1.186272 0.104922,0.31028 -0.584517,1.43187 0.161883,1.43172 0.470713,0.29864 -0.850393,1.33442 -0.206095,1.79908 -0.103958,0.62735 -0.01181,2.09911 -0.943622,0.85275 -0.937385,-0.98709 -1.505096,-2.37046 -1.550532,-3.69158 0.372833,0.64462 0.496779,1.76152 0.404461,0.69807 -0.378641,-1.25159 -0.458805,-0.43589 -0.737421,-1.5712 -0.698475,-1.502976 -0.958192,-3.492349 -2.317195,-4.358456 -0.171645,-0.677967 -0.646849,-1.255781 -0.842475,-1.934555 z"
         style="fill:#00c021;fill-opacity:1;stroke-width:0.120374" /><path
         id="IN-LD"
         title="Lakshadweep"
         d="m 50.852132,105.68213 c -0.04349,0.17672 -0.225954,0.12494 0,0 z m 1.467844,-4.59033 c 0.007,0.20933 -0.06656,0.0869 0,0 z m -3.33521,-0.0824 c 0.05449,0.0485 -0.04053,0.0297 0,0 z m 3.359044,-0.05 c 0.0339,0.0258 -0.02548,0.15031 0,0 z m -2.567462,-1.08046 c 0.107581,0.06047 -0.245368,0.17905 0,0 z m 2.611519,-0.626879 c 0.201628,0.02945 -0.162487,0.06026 0,0 z m -3.794437,0.0042 c 0.02961,-0.08572 0.173852,-0.312428 0,0 z m 0.298889,-0.323925 c 0.01479,0.06078 -0.05773,0.01059 0,0 z m 0.08884,-0.01855 c -0.04876,0.08426 -0.03859,-0.02075 0,0 z m 1.020532,-0.470545 c 0.02356,0.12105 -0.113613,0.04286 0,0 z m -1.584004,-0.20278 c 0.01694,0.01499 -0.02267,-4.51e-4 0,0 z m 1.731704,-0.114972 c -0.05816,0.289562 -0.141824,0.25478 0,0 z m 0.528443,-0.612574 c 0.07984,0.08132 -0.01409,0.117969 0,0 z M 48.62774,97.246964 c 0.03065,0.02222 -0.02045,0.01362 0,0 z m 1.329894,-0.270447 c 0.04899,0.04433 -0.10183,0.126918 0,0 z"
         style="fill:#00c021;fill-opacity:1;stroke-width:0.120374" /><path
         id="IN-MH"
         title="Maharashtra"
         d="m 53.557784,69.914847 c 1.196544,-0.615795 0.535708,1.057445 1.844614,0.891571 0.780202,0.712365 1.644082,0.726792 2.748265,0.629371 0.652602,0.169659 0.429496,1.478577 1.306786,0.536067 0.813125,-0.157801 0.529309,-1.472648 1.689571,-1.402866 0.839358,-0.464061 1.26891,0.441482 0.78482,0.69589 0.412136,0.429753 1.009819,0.224785 1.763848,-0.112661 0.464073,-0.685012 0.867047,0.285667 1.550417,0.02548 0.546476,-0.06838 0.809064,-0.695899 1.590264,-0.549134 0.570046,0.981963 1.930366,-0.333998 2.498489,0.665813 0.826845,0.345422 0.171242,0.471509 0.121579,1.391552 0.157515,0.614762 0.835106,1.410223 -0.182971,1.861359 0.531446,0.488825 0.250905,0.883265 0.02975,1.200853 0.417277,-0.0878 1.599212,0.823492 0.962185,1.303213 -0.766003,-0.613647 -1.37918,0.725512 -1.247308,1.438677 -0.49139,0.734706 -1.364175,-0.692601 -0.852787,-1.071572 0.337813,-1.423754 -0.961447,-0.856427 -1.584845,-1.056221 -0.315018,0.431564 -0.992366,-0.06375 -1.334106,-0.571472 -1.140779,-0.206938 -1.218053,-0.471959 -1.274404,0.591099 0.170254,1.194474 -1.014511,0.372997 -1.090001,0.966226 -0.566516,0.605112 0.571384,0.707054 -0.151672,1.367949 -0.477481,0.389302 -0.518177,0.707478 -0.808903,1.128373 -0.243655,-1.051122 -0.677449,0.143243 -1.089988,0.202301 -0.244001,0.305986 -0.592764,0.894105 -0.843354,1.214114 -0.259879,-0.236296 -0.926343,0.245714 -0.918341,0.777118 0.42955,0.469858 -0.889656,0.243575 -1.187608,0.123766 -0.845042,-0.464192 -0.557096,0.226487 -0.549755,0.922805 0.06655,0.05856 -1.102125,0.622919 -1.38747,0.242178 -0.470752,0.01006 -0.767262,0.659853 -1.151203,0.971941 -0.364526,-0.236974 -1.244222,0.113757 -0.740302,0.461373 -0.02848,0.17732 0.514835,0.834346 0.235796,0.903218 0.04154,0.811827 -0.522207,0.651113 -1.028839,1.185825 -0.42772,-0.669971 -1.180228,-0.148298 -1.411751,-1.224032 -0.251549,-0.971199 -0.447001,-1.322945 -0.436966,-2.407587 -0.130781,-0.568666 -0.251112,-1.012558 -0.316949,-1.576133 -0.118425,-0.534998 -0.674453,-1.69661 -0.471383,-1.749545 0.71072,0.570394 -0.847556,-1.108391 -0.164553,-1.464318 0.120998,-0.01679 0.391859,-1.223909 -0.273371,-0.263061 0.03512,-0.393448 -0.0301,-1.480551 -0.22558,-1.731105 -0.15408,-0.715435 -0.241556,-1.745182 0.614579,-1.81101 0.03191,0.724652 1.242042,0.210823 1.162524,-0.37282 0.101506,-1.106043 -0.03327,-0.746958 1.011425,-0.690958 0.50393,-0.415635 0.140865,-1.220941 -0.404868,-1.35075 -0.196439,-0.01115 0.863073,-0.729343 1.120679,-0.919334 1.318845,-0.395576 -0.481344,-0.08063 -0.71672,-0.40776 0.335036,-0.333544 -0.421025,-0.762546 0.81039,-0.965775 z"
         style="fill:#00c021;fill-opacity:1;stroke-width:0.120374" /><path
         id="IN-ML"
         title="Meghalaya"
         d="m 93.18017,60.010666 c 0.160314,-0.394885 0.287247,-1.420333 1.407322,-1.247094 0.326545,0.39257 0.932913,-0.08704 1.357693,0.286096 0.372684,0.157442 0.596118,0.592495 1.416931,-0.007 -0.04836,-0.15067 0.561772,-0.619203 1.162476,-0.425205 1.466233,-0.593752 -0.475882,1.371844 1.114087,0.868947 0.688701,0.572578 0.141083,0.685285 0.884941,1.116235 -0.21219,0.641945 -1.003244,1.084451 -1.807041,0.398028 -1.086603,0.227511 -1.532298,-0.02839 -2.699424,0.0253 -0.924551,0.09458 -2.412145,0.0882 -2.958963,-0.570903 -0.107425,-0.248808 0.285572,-0.225746 0.121978,-0.444353 z"
         style="fill:#00c021;fill-opacity:1;stroke-width:0.120374" /><path
         id="IN-MN"
         title="Manipur"
         d="m 102.26132,60.667497 c 0.59086,0.703442 0.62291,-1.009241 1.36239,-0.801981 0.40951,0.828579 1.60631,-0.614616 1.36351,0.02876 0.18653,0.734993 0.66411,1.360369 0.16234,2.293391 -0.64733,0.657856 -0.78023,1.747945 -1.25381,2.551377 -0.68304,-0.55933 -1.59541,-0.319313 -1.97869,-0.581886 -0.52502,0.06494 -0.95509,-0.125828 -0.84885,-0.968524 0.27339,-0.585067 0.20969,-1.026325 0.60347,-1.488062 0.11168,-0.294872 0.28135,-0.74438 0.58964,-1.033045 z"
         style="fill:#00c021;fill-opacity:1;stroke-width:0.120374" /><path
         id="IN-MP"
         title="Madhya Pradesh"
         d="m 63.797902,56.375393 c 0.507586,0.07448 1.473307,0.05094 1.834745,0.490308 0.106302,0.246415 0.779141,0.883906 0.249775,1.116076 -0.186916,0.382738 -0.280065,1.201917 -0.723297,1.448941 0.326643,0.76583 -1.11346,0.237038 -1.145275,1.053737 0.840426,0.668487 -0.398753,0.922276 -0.189325,1.748811 0.05334,1.228387 0.469627,1.076981 1.289809,1.369333 0.485755,0.550385 0.904081,-1.201963 0.176451,-0.972041 -0.146595,-0.492819 -0.376746,-1.31551 -0.769897,-1.920044 -0.338591,0.14549 0.570853,-0.535936 0.402646,-0.352666 0.420945,0.131383 0.199036,-0.09056 0.639658,-0.38942 0.197171,0.51347 0.02709,0.446323 -0.248693,0.725484 0.511926,-0.409535 0.0072,0.697273 0.487134,0.06379 0.01843,0.600117 0.543641,0.285882 0.642781,0.432228 0.414563,-0.383275 -0.290124,-0.621705 0.497165,-0.451514 -0.300779,0.60973 0.04303,0.409248 0.72634,0.390736 0.281875,0.196865 1.094983,-1.312321 1.410383,-0.457001 0.289559,0.779271 -0.105305,0.829471 0.599867,0.669507 0.28222,-0.302133 0.520208,0.210455 0.737291,-0.340926 -0.01702,0.66068 -0.03025,0.670512 0.747045,0.830043 0.320564,-0.355509 0.397693,-1.124228 0.885094,-0.509362 0.266391,-0.708583 0.158948,0.22782 0.87103,0.154872 0.156387,0.523857 0.901835,0.651022 0.986717,0.702309 0.09412,0.669521 0.486837,0.102879 1.196899,0.253817 0.227897,0.157788 0.216732,1.082344 -0.06308,1.434113 0.720266,0.563352 -0.338198,1.190566 -1.120579,0.971413 -0.35388,0.0783 -1.940314,-0.611845 -1.391148,0.146032 -0.70204,1.017545 0.477579,0.289862 0.86164,0.910425 0.870271,0.320937 -0.0273,1.015489 -0.393093,1.396175 -0.326587,0.487733 -0.401441,0.990606 -1.038113,1.224737 -0.605931,-0.499243 -1.015789,0.661768 -1.221075,1.115629 -0.550672,-0.0045 -0.372587,1.500578 -0.933023,1.992683 -0.628583,-0.529415 -1.064777,-0.829828 -2.04445,-0.676576 -0.869992,-0.04731 -1.279526,-0.545154 -2.188748,-0.04932 0.181128,0.544597 -1.238336,0.338433 -1.34482,-0.07133 -0.401464,0.128285 -1.24296,0.831345 -1.734711,0.601142 -1.154008,0.111914 0.0958,-0.390928 -0.543351,-1.016159 -0.597282,0.141307 -1.691831,0.156989 -1.741942,0.827952 -0.180074,0.599215 -1.392859,1.456183 -1.555597,0.801217 -0.151454,-1.351594 -2.317999,0.10292 -2.794851,-1.068286 -1.360148,0.370349 -1.210152,-1.526288 -1.935257,-1.00785 -0.520759,0.04063 -0.701766,-1.254578 -0.208964,-1.176968 0.469795,-0.312605 -1.043115,-0.200758 0.0058,-0.582368 1.290172,-0.364977 -0.319012,-1.386689 0.848286,-1.510373 1.213534,-0.275113 -0.842463,-0.588716 0.602954,-1.143642 0.561949,-0.210012 0.671209,-1.86802 -0.0096,-2.027387 0.24877,-0.317142 -0.35031,-1.637429 0.276494,-1.043222 0.817277,-0.08089 -0.726342,-1.000653 0.07353,-0.649425 0.681289,-0.07444 1.327304,-0.747383 0.860193,0.006 0.96573,0.09289 -1.03465,-0.03057 0.231671,0.487879 0.87888,-0.06395 1.425611,-0.06646 1.400003,0.716645 -0.94541,-0.03167 0.190474,1.034082 -0.525554,1.348331 -1.024464,-0.736791 -0.130664,1.131211 -0.0058,0.253938 0.575079,0.106743 1.083495,-0.604729 1.228058,-1.256792 0.284563,0.427914 0.933961,0.512554 1.278732,0.128684 0.686635,1.449054 0.273979,-1.078341 0.558661,-0.561632 1.052003,-0.269344 -0.735275,-0.946767 0.01565,-1.192394 -0.451986,-0.778574 1.994805,-0.198912 1.047136,-1.140006 -0.01989,-0.580135 -1.413457,0.664079 -1.883494,-0.295909 -0.710927,-0.851459 0.246293,-1.245547 0.608398,-1.676406 0.974025,-0.824238 2.039678,-1.13299 2.927625,-1.896878 0.407336,0.218889 0.216562,-0.421782 0.548075,-0.377033 z"
         style="fill:#00c021;fill-opacity:1;stroke-width:0.120374" /><path
         id="IN-MZ"
         title="Mizoram"
         d="m 99.29458,63.608336 c 0.74044,0.895971 0.97284,-1.193519 1.54944,-0.446555 0.43185,0.395154 0.26123,1.118495 0.86607,1.077181 0.7375,0.161733 0.30613,1.727511 0.29912,2.406131 -0.53702,0.319953 -0.8072,0.791035 -0.60545,1.726341 0.45199,0.935867 -0.34733,1.088196 -0.56139,1.564541 -0.76658,-0.823856 -0.81805,0.169714 -0.956039,-1.680546 -0.105069,-0.837722 -0.584971,-1.42414 -0.381023,-2.19366 -0.578616,-0.982573 0.0384,-1.485848 -0.210728,-2.453433 z"
         style="fill:#00c021;fill-opacity:1;stroke-width:0.120374" /><path
         id="IN-NL"
         title="Nagaland"
         d="m 106.59925,55.789385 c 0.35944,0.855603 -0.49731,1.43754 -0.13359,2.341009 -0.1081,0.678383 -0.27996,1.795413 -1.15944,2.116641 -0.35472,-1.135366 -0.45697,0.08923 -1.31596,-0.26716 -0.81373,-0.444704 -1.03063,0.655662 -1.52562,0.851708 -0.8405,-0.468698 -0.15575,-1.394564 0.49677,-1.920172 0.34167,0.900033 0.71881,-0.95715 1.09542,-1.474965 0.42485,-0.06079 0.67088,-0.702977 1.44165,-0.897799 0.29516,-0.727078 0.70251,-0.173395 1.10077,-0.749262 z"
         style="fill:#00c021;fill-opacity:1;stroke-width:0.120374" /><path
         id="IN-OR"
         title="Odisha"
         d="m 85.621869,73.119097 c 1.417823,0.110559 -1.128977,0.62579 0,0 z m -7.227268,-4.749923 c 0.616223,0.792263 1.43128,0.21791 2.202597,0.211919 1.078059,-0.456182 0.04277,1.136157 0.551613,0.937558 0.418579,0.164518 1.018063,-0.117802 1.780073,-0.03094 -0.03968,0.972414 0.857859,-0.428806 0.521209,-0.854829 -0.101003,-0.768437 1.116793,0.507779 1.604859,0.444672 0.672136,0.675594 1.152112,0.878041 1.554294,1.21838 1.39315,0.55808 -0.548205,0.654057 -0.932785,1.350338 0.300717,0.785063 -0.492365,2.165063 0.10504,1.637753 0.06282,0.227993 -0.818673,1.450451 -1.491238,1.949881 0.160405,-0.198717 -1.35677,0.66336 -2.306327,0.966886 -0.736004,0.271404 -1.571679,1.57803 -1.929394,1.348513 -0.01364,0.199317 -0.741772,0.359971 -0.729616,0.679506 -0.538856,0.762155 -1.508808,-0.450471 -1.633566,-0.386173 -0.364317,-0.393065 -0.635991,-0.161004 -0.67443,0.176679 -0.472833,-0.338266 0.01556,0.703751 -0.934857,0.648593 -0.279566,0.343784 0.168389,1.274177 -0.718814,0.700343 -0.508753,1.418536 -0.654007,-0.981848 -1.045071,0.187029 -0.206473,0.323479 0.107106,1.312749 -0.786304,0.839984 -0.494961,0.242861 -2.076549,1.163259 -1.499422,0.219895 -0.119281,-0.897596 1.279077,-1.451734 1.184587,-1.750846 0.775572,-0.405546 0.658479,-1.088482 0.59408,-1.84369 -0.09306,-0.559015 -0.947896,-1.331106 -0.635422,-2.07312 0.680258,0.288458 1.463154,0.958333 1.982138,0.596982 -0.614862,-0.381536 -0.938674,-0.973377 -0.84912,-1.718507 -0.430595,-0.930129 0.440031,-1.150862 0.936522,-1.755004 0.824516,0.311805 1.729089,-0.315531 1.467503,-0.909829 0.276027,-0.633116 0.681217,-0.685854 0.513488,-1.521775 -0.157375,-0.538219 1.666547,-0.791777 1.168363,-1.270215 z"
         style="fill:#00c021;fill-opacity:1;stroke-width:0.120374" /><path
         id="IN-PB"
         title="Punjab"
         d="m 57.908351,39.671107 c 0.360895,0.820152 -1.629521,1.388553 -0.02117,1.834983 0.41805,0.387514 0.384905,2.183556 1.190732,1.807801 -0.03726,-0.245421 0.791397,0.391537 0.639307,0.502934 0.375211,0.779474 0.529787,1.283955 0.578151,1.46369 0.528464,0.710035 0.03323,0.809234 -0.365939,1.055224 -0.441398,0.160223 0.06304,1.145043 -0.739821,0.417324 -0.406388,0.08436 -0.486604,0.415791 -0.535731,1.040666 -0.694371,0.358171 -1.362738,-0.05289 -1.937679,0.246528 -0.559164,1.131216 -0.331763,-0.275604 -0.779205,-0.188916 -0.03768,-0.601773 -0.98317,-0.358461 -1.661976,-0.409112 -1.471551,0.440549 -1.466301,-0.751836 -1.179214,-1.49202 0.542072,-0.510345 0.75674,-1.075071 1.450023,-1.574892 0.824894,-0.498638 -0.676501,-0.23877 0.261936,-1.378062 -0.425837,-0.371774 -0.345748,-1.542899 0.421071,-1.470478 0.539486,-0.331328 1.419345,-0.582094 1.526588,-1.101433 0.221186,0.125022 0.835949,-0.305746 1.152931,-0.754237 z"
         style="fill:#00c021;fill-opacity:1;stroke-width:0.120374" /><path
         id="IN-PY"
         title="Puducherry"
         d="m 67.934082,99.267327 c -0.853296,-0.285799 0.179516,-0.837382 0,0 z M 67.806003,96.70887 c -0.448145,-0.186243 -0.343751,-0.614094 -0.0062,-0.40009 0.23898,0.03773 -0.0032,0.269672 0.0062,0.40009 z m 6.191808,-12.71089 c -0.60619,-0.18293 0.448074,-0.141297 0,0 z"
         style="fill:#00c021;fill-opacity:1;stroke-width:0.120374" /><path
         id="IN-RJ"
         title="Rajasthan"
         d="m 53.104937,46.718619 c -0.991267,1.369828 2.198615,0.06611 1.274278,1.315123 0.768331,-0.05189 -0.380787,1.764582 0.903822,1.004533 0.388334,0.808765 1.580048,-0.0078 1.3367,0.739798 0.47521,0.441587 0.293024,1.558358 1.031011,2.117852 1.138402,0.294085 0.55772,0.953965 0.592225,1.012167 -0.541692,0.220955 0.367388,1.000689 0.487031,0.444721 0.162577,-0.447082 0.134693,-0.945406 0.753906,-0.59377 -0.351552,1.02173 1.478655,-1.295383 1.061551,0.519921 -0.216823,1.082468 0.212948,0.446073 0.522665,0.423899 0.500705,-0.47161 0.381227,0.567236 0.763648,0.896107 0.940657,0.440931 0.03555,0.991275 0.49847,1.268313 0.84764,-0.337819 -1.180218,1.061867 -0.268916,0.547952 0.865654,-0.408766 1.218234,-0.159836 1.868568,-0.287307 -0.29575,0.505054 -0.796182,0.752943 -1.498055,1.173719 -0.74935,0.468821 -1.385325,0.743301 -2.109921,1.348099 -0.34997,0.451664 -1.339532,0.809088 -0.608398,1.676402 0.493116,0.917271 1.840003,-0.221206 1.883494,0.295913 0.911727,0.932659 -1.46681,0.373648 -1.047136,1.140001 -0.794101,0.244667 1.061358,0.934438 -0.01565,1.192395 -0.279154,-0.520158 0.159345,2.011018 -0.558661,0.561636 -0.343129,0.354986 -1.00145,0.276 -1.278731,-0.12869 -0.152289,0.62791 -0.645418,1.384018 -1.228058,1.256794 -0.13901,0.898296 -0.995506,-1.021776 0.0058,-0.253934 0.751829,-0.329822 -0.43467,-1.374046 0.525554,-1.348336 0.04282,-0.883514 -0.645649,-0.684516 -1.586068,-0.760489 -0.874223,-0.621818 0.891175,-0.258712 -0.04561,-0.444035 0.467399,-0.600367 -0.239017,-0.222465 -0.860193,-0.006 -0.753722,-0.41877 0.856479,0.902231 -0.183997,0.466677 -0.346432,-0.0802 -0.14267,1.028719 -0.01456,1.228778 0.400089,0.393875 0.439439,1.800809 -0.141878,2.024584 -1.445417,0.554926 0.61058,0.868524 -0.602954,1.143642 -0.810309,0.502182 -0.961593,-0.607619 -1.529114,-0.575108 -0.787481,-0.29479 -0.691025,-0.622359 -1.293549,-1.189169 -0.0168,-0.960506 -0.198419,-0.63306 -0.86393,-1.137644 0.721511,-0.511291 -0.237226,-1.145147 -0.400127,-0.39136 -0.722657,-0.479907 -1.511313,-0.265021 -1.506606,-0.722559 -0.502191,-0.327797 -1.088105,-0.167793 -1.674261,-0.128912 -1.216023,0.334207 -1.763556,-0.622232 -2.241445,-1.744208 0.01789,-1.514346 -1.058547,-0.792551 -1.70334,-1.91702 0.475607,-1.26889 0.164542,-1.933411 -1.142766,-2.097401 -1.174519,-0.822609 0.604302,-1.900545 1.021515,-2.668545 0.507744,-1.840228 1.559747,-0.61261 2.312976,-0.283699 1.234755,-0.454744 2.380809,-0.359616 2.925086,-1.668398 0.162735,-1.397658 1.707095,-1.594769 2.336067,-2.584006 0.716953,-0.986858 0.553392,-2.466358 2.01962,-2.635429 l 0.17142,-0.142712 z"
         style="fill:#00c021;fill-opacity:1;stroke-width:0.120374" /><path
         id="IN-SK"
         title="Sikkim"
         d="m 90.093654,52.780513 c 1.193996,0.299917 -0.09633,1.75317 0.639794,2.350462 -0.584275,0.422638 -1.102412,0.449321 -1.921409,0.448725 -0.78755,-0.589553 0.52422,-1.736848 -0.03216,-2.375208 0.445868,0.110509 1.074283,-0.425794 1.313773,-0.423979 z"
         style="fill:#00c021;fill-opacity:1;stroke-width:0.120374" /><path
         id="IN-TG"
         title="Telangana"
         d="m 62.135172,79.761544 c -0.0896,-0.599175 0.407653,-0.851039 0.945022,-1.406584 -0.534871,-0.454371 -0.231772,-0.725152 -0.158855,-1.2394 0.630392,0.236883 1.276742,-0.216556 1.027507,-1.014611 -0.133713,-0.950784 0.969718,-0.444475 1.48446,0.0182 0.585968,0.739784 0.860096,0.0089 1.541147,0.425554 0.717139,-0.747551 1.710675,0.435713 0.980702,1.237244 0.107918,0.925875 1.089172,0.940653 1.924851,1.356898 0.380732,0.89371 0.487797,0.802836 0.813788,1.162521 -0.09003,1.103201 1.250475,0.783483 1.869381,0.539726 0.232024,-0.03599 -0.61912,1.404137 -1.053086,1.484633 -0.729935,0.117561 -1.071348,1.092889 -1.742311,0.517086 -1.13332,0.378939 0.212665,0.331837 -0.04063,0.96381 -0.437069,-0.188862 -1.456333,-1.196156 -1.24262,-0.133776 -0.282199,0.819625 -2.444081,-0.105186 -2.144469,1.510623 -1.104684,-0.01879 -0.843062,0.800485 -2.048646,0.41682 -0.619571,0.708547 -1.045963,0.658542 -2.014101,0.44412 -0.929315,-0.328256 0.574726,-1.413726 -0.663772,-1.229313 -0.235897,-0.430669 0.576383,-0.609753 0.278304,-1.39395 -0.09284,-0.682073 -0.21095,-1.231503 0.396152,-1.41339 0.590749,-0.283763 -1.076694,-0.252597 -0.112522,-0.846977 0.03696,-0.368161 0.176042,-0.662678 0.09342,-1.363468 z"
         style="fill:#00c021;fill-opacity:1;stroke-width:0.120374" /><path
         id="IN-TN"
         title="Tamil Nadu"
         d="m 66.57614,103.07237 c 0.95284,0.78775 -0.784928,0.13325 0,0 z m -2.750913,-8.801159 c 0.134397,0.590473 1.033565,0.30438 1.020655,-0.430837 0.202817,-0.834176 1.042713,0.151713 1.493481,-0.560396 0.750984,0.07283 0.389315,-0.850367 1.146443,-0.243211 0.156661,0.102805 0.601477,-0.365381 0.905684,-0.706181 0.699561,-0.167346 0.937417,0.80011 0.559981,1.861599 -0.215435,0.781767 -1.098246,2.709185 -1.451112,1.973192 0.07234,0.439735 0.248976,0.576703 0.400965,1.711444 -0.190879,1.374577 -0.132734,0.935074 0.09217,2.504399 -0.761707,0.30215 -1.859626,0.19289 -2.042952,1.5148 -1.034891,1.15453 1.15351,1.38612 -0.870793,1.53015 -0.948321,0.003 -1.634457,1.09207 -1.460859,1.53549 -0.196266,0.82463 -1.480211,1.54343 -2.246034,1.05139 -0.621842,-0.5061 0.207238,-1.09285 -0.107405,-1.89012 -0.378964,-0.41497 0.809872,-1.4594 0.250875,-1.72692 -0.558646,-0.0354 -0.125403,-1.14764 -0.06008,-1.57281 -0.350508,-0.61001 -1.535824,0.46755 -1.19809,-1.074933 0.192121,-0.512557 -0.300694,-1.313816 -0.458502,-1.436396 -0.101359,-0.04129 -1.242761,-0.932778 -0.687696,-1.021802 0.540273,-0.461637 1.334874,0.336059 1.648774,-0.567376 0.347649,0.332643 1.104168,-0.0197 1.432572,-0.340943 0.733709,-0.643867 -0.443286,-0.829156 0.06309,-1.770203 0.522868,-0.325958 0.751246,-0.863184 1.288541,-0.414154 0.0616,0.08551 0.185954,0.05093 0.280306,0.07378 z"
         style="fill:#00c021;fill-opacity:1;stroke-width:0.120374" /><path
         id="IN-TR"
         title="Tripura"
         d="m 99.013748,62.856787 c 0.220041,0.578979 0.559935,1.398981 0.18692,1.958861 0.04845,0.773542 -1.097108,-0.204471 -0.800248,1.039838 -0.318457,0.345417 -0.636004,2.174621 -1.085752,0.702414 -0.423298,0.159226 -0.379312,0.200627 -0.602105,-0.688028 -0.474716,-0.657878 -0.1105,-0.842636 -3.77e-4,-1.464659 0.294748,-0.397124 1.235119,-0.467606 1.188476,-0.784161 0.492064,0.557082 0.631887,-0.497592 1.113086,-0.764265 z"
         style="fill:#00c021;fill-opacity:1;stroke-width:0.120374" /><path
         id="IN-UP"
         title="Uttar Pradesh"
         d="m 62.168154,46.105805 c 1.45104,0.258197 0.236131,0.991166 0.468855,1.744826 0.349792,0.441973 0.577637,1.033154 1.119839,0.281819 0.397529,-0.461587 2.142664,0.887391 1.500103,1.10532 -0.04746,0.460872 0.858992,0.472919 1.285334,1.087849 0.412526,0.340296 1.152244,0.189272 1.453156,0.388713 0.131131,0.305171 1.076338,-0.153813 1.588975,0.7238 0.110996,-0.733638 1.053004,0.508007 1.668103,0.569435 0.420135,0.877432 0.90836,0.664047 1.810941,1.464818 0.547451,-0.227956 2.162224,0.427597 2.146768,0.989602 0.995822,0.123066 1.476748,0.585153 2.088908,0.109754 1.049146,0.283434 0.908218,0.803538 1.206712,1.44722 0.110709,0.325264 0.955097,0.634612 0.708938,0.994834 -1.549569,-0.139299 -0.496615,0.608055 -0.54166,0.98235 -0.759202,0.499607 0.825194,0.939574 1.117613,1.192871 0.357087,0.567951 -0.598165,0.43848 -1.028809,0.298703 -0.520572,0.355113 -0.825594,0.975052 -1.254779,1.015821 -0.82825,0.19126 -1.117608,1.248136 -0.429348,1.756333 0.05141,0.679283 -0.210213,1.025125 -0.48079,1.843283 -0.343593,1.213314 -2.039103,-0.03772 -1.358555,-0.451636 -0.190176,-0.78901 0.415577,-1.270292 -0.583323,-1.226484 -0.534362,0.455422 -0.6166,-0.277743 -0.870817,-0.170026 -0.0923,-0.218363 -0.82376,-0.633161 -1.295706,-0.946918 -0.127342,-0.356824 -0.481987,-0.06876 -0.575754,-0.150264 -0.686713,-0.378702 -0.338934,1.024852 -1.196858,0.579334 -0.771539,0.05412 0.314781,-0.986107 -0.644124,-0.589156 0.269808,0.463525 -0.485708,-0.199122 -0.51761,0.255995 -0.948134,0.440104 0.192529,-0.837513 -0.756672,-1.035229 -0.780996,0.272169 -0.680916,1.051639 -1.522499,0.750817 -0.805965,0.471646 -0.0171,-0.515208 -0.652428,-0.409535 -0.172883,-0.180977 0.07076,0.51822 -0.21993,0.427743 -0.429993,0.237974 -0.527742,-0.443211 -0.743765,-0.221569 -0.06564,-0.23545 -0.2927,-0.07023 -0.278669,-0.368435 0.52104,0.256438 0.180315,-0.971853 0.04901,-0.321514 -0.346057,-0.163912 -0.255454,0.532602 -0.515212,0.06475 -0.457459,0.507951 -0.618418,0.18095 -0.13999,0.966457 0.422591,0.70802 0.307904,1.307832 0.930371,1.671069 0.09671,0.352657 -0.456713,1.286003 -0.977556,0.388089 -0.800325,0.601995 -1.003117,-0.980043 -0.866942,-1.596884 0.993788,-0.570244 -0.200478,-0.982563 0.469445,-1.522717 0.207015,-0.417878 1.231695,-0.278279 0.984183,-0.987426 0.448799,-0.21156 0.286044,-1.186557 0.794593,-1.365956 -0.173946,-0.43196 -0.234643,-0.958647 -0.794232,-1.268518 -0.549633,-0.0837 -1.689191,-0.06942 -1.500586,-0.533488 -0.567539,0.283161 -1.023233,0.02584 -1.809103,0.300158 -0.81556,0.599472 1.456185,-0.862981 0.149746,-0.535207 0.214841,-0.313575 0.266184,-0.851135 -0.405662,-1.252544 -0.519295,-0.645831 -0.02217,-1.154206 0.349812,-1.470952 -0.327113,-0.670822 0.28591,-0.766486 -0.497747,-1.478363 -0.158195,-0.738027 -0.456243,-1.182267 -0.535427,-2.064611 0.03931,-0.738674 -0.317219,-2.018976 0.728744,-2.564639 -0.08799,-0.246914 0.614327,-0.574115 0.374401,-0.869696 z"
         style="fill:#00c021;fill-opacity:1;stroke-width:0.120374" /><path
         id="IN-UT"
         title="Uttarakhand"
         d="m 66.279898,43.312076 c 0.266804,1.220848 1.241805,0.880484 2.019474,1.450802 0.761578,0.27231 0.519357,1.1832 1.666431,1.225333 1.406129,0.527537 0.455912,0.956157 -0.214627,1.627175 -0.461013,0.459239 -0.821176,1.14325 -0.639366,1.668316 -0.106653,0.563653 -0.669811,0.897141 -0.768589,1.663913 -0.556563,-0.269576 -0.605672,-0.494521 -1.498144,-0.343274 -0.29665,-0.534809 -1.038132,-0.781081 -1.310165,-0.999889 -0.545265,-0.628015 0.211591,-0.608046 -0.999866,-1.436924 -0.717641,-0.674176 -1.314248,1.043223 -1.583604,-0.0116 -0.692654,-0.04122 -0.330212,-1.208974 0.145176,-1.589209 -1.611282,-0.483729 0.05611,-0.633547 -0.479808,-1.359136 0.05641,-0.630012 -0.06088,-1.005707 0.727903,-1.398058 0.775019,-0.42237 1.464183,-0.19464 2.120274,0.230195 0.436928,0.37262 -0.07756,-1.896109 0.814911,-0.727643 z"
         style="fill:#00c021;fill-opacity:1;stroke-width:0.120374" /><path
         id="IN-WB"
         title="West Bengal"
         d="m 89.721817,70.877783 c 0.274094,0.142448 -0.178334,0.243789 0,0 z m 0.849361,-0.02025 c 0.53075,0.118684 -0.159981,0.286127 0,0 z m -0.280231,-0.05251 c 0.238922,0.157947 -0.163335,0.226032 0,0 z m -0.46958,-0.03276 c 0.376218,0.317616 -0.304645,0.07857 0,0 z m 0.591399,-0.03931 c 0.236142,0.384449 -0.247187,0.134036 0,0 z m 0.48848,0.0314 c 0.09892,0.251606 -0.14571,-0.220968 0,0 z m -0.939161,-0.0992 c 0.20414,0.337479 -0.327751,0.05686 0,0 z m 0.986468,-0.07508 c 0.249393,0.426754 -0.149254,0.191437 0,0 z m -0.452729,0.02388 c 0.110227,0.268484 -0.329617,-0.02889 0,0 z m -1.244306,-0.02557 c 0.344804,0.08167 -0.175745,0.562961 0,0 z m 0.360277,-0.0083 c 0.180377,0.313711 -0.220668,0.290932 0,0 z m -0.628833,-0.03203 c 0.166405,0.299562 -0.170286,0.474689 0,0 z m 2.153857,-0.0018 c 0.36796,0.49852 -0.500099,0.155218 0,0 z m -1.28572,0.01274 c 0.330709,0.05471 -0.280523,0.288193 0,0 z m 0.841781,-0.07641 c 0.441432,0.288716 -0.155396,0.51478 0,0 z m -1.186171,0.03795 c 0.135514,0.843765 -0.2216,-0.124649 0,0 z m -0.490885,-0.05056 c 0.519898,0.299977 -0.08193,0.869115 0,0 z m 1.80489,-0.02279 c 0.335303,0.143176 -0.139336,0.156647 0,0 z m -1.417044,0.0041 c 0.0991,0.348197 -0.208911,0.131715 0,0 z m 1.617948,-0.0056 c 0.276674,0.01647 -0.08871,0.233144 0,0 z m -0.450199,0.0037 c 0.281114,0.489094 -0.351291,0.253817 1.4e-5,6.4e-5 z m -0.63654,-0.05495 c 0.284112,0.291924 -0.1027,0.302097 0,0 z m 0.999351,-0.01324 c 0.370727,0.352237 -0.279313,0.05642 0,0 z M 90.004096,70.3605 c 0.166506,0.267561 -0.159471,-0.0014 0,0 z m -0.356068,0.0037 c 0.03799,0.383416 -0.261273,0.131833 0,0 z m 0.624262,-0.05021 c 0.394771,0.329203 -0.297616,0.670399 0,0 z m -0.432383,-0.0079 c 0.316946,0.279977 -0.361292,0.287433 0,0 z m -0.309363,-0.0023 c 0.386746,0.16155 -0.372969,0.35291 0,0 z m 1.455925,-0.0014 c 0.370413,-0.03972 -0.204458,0.375917 0,0 z m -0.432142,0.02075 c -0.02234,0.377105 -0.159772,-0.132507 0,0 z m 0.285527,-0.117516 c 0.314717,0.201724 -0.35848,0.264754 0,0 z m -0.879815,-0.0075 c 0.177755,0.201428 -0.148126,0.168776 0,0 z m -0.654234,0.01456 c 0.411272,0.315605 -0.51009,0.503966 0,0 z m 1.319182,-0.05591 c 0.392086,0.370914 -0.151679,0.507788 0,0 z m -1.812234,-0.02657 c 0.450026,0.852526 -0.746104,0.877786 0,0 z m 1.647684,0.05602 c 0.288457,-0.333999 -0.07637,0.398578 0,0 z m 0.474271,-0.106356 c 0.434689,0.187911 -0.252142,0.311027 0,0 z m -0.900516,-0.01151 c 0.389735,0.505412 -0.27919,0.312688 0,0 z m -0.149508,9.09e-4 c 0.142525,0.190104 -0.203694,0.25879 0,0 z m -0.291906,-0.02011 c 0.426573,0.198835 -0.469225,0.447943 0,0 z m 0.677464,0.01406 c 0.488543,-0.03589 -0.221469,0.91361 0,0 z m -0.189826,-0.05966 c 0.186582,-0.03554 -0.0697,0.231733 0,0 z m 0.49534,0.01017 c 0.602255,-0.213675 0.197806,0.532064 0,0 z m -0.284686,-0.03822 c 0.519844,0.07119 0.04912,0.276801 0,0 z m 0.05489,-0.130127 c 0.284244,0.202756 -0.141342,0.125596 0,0 z m -0.215109,-0.107452 c 0.464667,0.08055 -0.322974,0.42175 0,0 z m -1.306902,-0.01951 c -0.12167,0.517323 -0.412606,0.123676 0,0 z m 1.691855,0.01893 c 0.93938,0.156678 -0.554725,0.420372 0,0 z m 0.575632,-0.07907 c 0.375785,0.689293 -0.472283,-0.0052 0,0 z m -0.429977,-0.08296 c 0.274167,0.292751 -0.575717,0.03335 0,0 z m -0.07319,-0.06707 c -0.02598,0.395089 -0.459275,-0.117238 0,0 z m 0.03767,-0.238794 c 0.389311,0.620959 -0.204404,0.111151 0,0 z m 0.249176,0.02256 c 0.09202,0.739279 -0.128953,0.831226 3.6e-5,5e-6 z m 0.117361,-0.0444 c 0.430467,0.491391 -0.352351,0.512437 0,0 z m -0.776532,9.1e-4 c 0.635786,0.01738 -0.532487,1.110834 0,0 z m 0.398316,0.133522 c -0.514084,0.5969 -0.303402,-0.164818 0,0 z m 0.240991,-0.205564 c 0.156128,0.281709 -0.233671,0.0594 0,0 z m -0.339935,-0.158508 c 0.171291,0.376778 -0.424239,0.327479 0,0 z m 0.0721,-0.170031 c 0.723811,0.216073 -0.290582,0.83861 0,0 z m 0.361604,-0.10029 c 0.446401,0.791103 0.02188,0.968814 0,0 z m -0.229196,-0.417942 c 0.180169,0.697509 -0.222338,0.422228 0,0 z m 0.101956,-0.06549 c 0.396392,0.740557 -0.324125,0.879173 0,0 z M 88.510483,55.290774 c 0.625817,0.778215 1.368504,-0.18756 2.060141,0.278844 0.07232,0.661508 0.882213,0.798792 1.574308,0.890626 0.468657,0.236341 1.124865,0.05743 0.99451,0.867659 0.01456,0.528174 -0.541727,0.620153 -0.340108,0.93876 -0.545317,-0.435049 0.100583,0.834888 -0.706226,0.442674 -0.70043,0.02921 -0.643929,-0.947878 -1.163054,-1.249624 -0.179632,0.349839 0.414448,0.580326 -0.23126,0.601877 -0.483684,-0.29776 -0.593988,-0.626613 -1.1332,-0.868205 -0.551272,-0.13711 0.707396,0.620317 -0.420212,0.992054 -0.494053,0.514002 -0.58281,1.241534 0.277424,1.354527 0.281797,0.898429 1.189168,0.24934 1.285355,1.091253 0.686355,0.459043 -0.562936,0.365536 -1.115725,0.352569 0.198803,0.995649 -0.69679,0.686091 -0.682922,0.929902 -0.912837,0.504412 0.417528,1.504783 0.990916,1.488354 0.481381,0.164585 0.709306,1.199519 0.02002,1.29138 -0.390163,0.787627 0.987212,0.951699 0.306017,1.551734 0.955207,0.201114 0.329513,0.402474 0.5453,1.037012 0.266636,0.662263 -0.138753,1.361716 -0.447543,1.947442 -0.387091,0.729575 -0.589338,1.061731 -0.964746,0.950384 -0.743365,0.887555 -0.202134,-1.687325 -0.767019,-0.988181 -1.140719,-1.212408 0.715262,0.336505 0.0099,0.571709 -0.384949,1.062166 -1.449554,1.257662 -1.977397,0.539297 -0.241819,-0.372406 -1.092703,-0.523669 -1.262958,-1.087098 0.535709,-0.259827 -0.04676,-0.844111 -0.37589,-1.26178 -1.119788,-0.312657 0.388797,-1.034821 -0.805476,-0.930799 -0.733483,-0.0047 -1.59516,-0.848856 -0.892878,-1.212631 0.37029,-0.894041 0.841222,0.690139 1.043287,-0.243761 0.738324,-0.295673 1.107472,-0.685758 1.534364,-0.888605 0.793791,0.526413 0.704897,-0.414449 0.878222,-0.384208 0.494213,0.02948 0.892587,-0.335804 0.807451,-0.65842 0.667663,-0.549725 0.319334,-0.885134 0.699693,-1.154073 -0.454894,-0.410763 0.471654,-0.719693 -0.327751,-1.426534 0.142911,-0.175008 -0.199454,-1.200752 0.556244,-0.902468 0.400918,-0.119413 -0.257369,-0.93966 -0.505299,-1.171898 0.03089,-0.662732 1.203947,-0.783519 1.075321,-1.35516 -0.178121,-0.434917 -0.213821,-0.429139 -0.230528,-1.424888 0.06209,-0.407491 -0.5319,-0.406044 -0.308238,-0.909724 z"
         style="fill:#00c021;fill-opacity:1;stroke-width:0.120374" /></g><path
       d="m 69.474187,29.280234 h -7.290508 c -3.373041,0 -6.107574,2.734423 -6.107574,6.107464 0,3.372858 2.734533,6.107391 6.107574,6.107391 h 7.290508 c 3.37304,0 6.107573,-2.734533 6.107573,-6.107391 0,-3.373041 -2.734533,-6.107464 -6.107573,-6.107464 z"
       fill="#bbf3f6"
       id="path2178"
       style="stroke-width:0.364653" /></g></svg>
